HIERARCHY
ROOT Hips
{
	OFFSET -0.001795 -0.223333 0.028219
	CHANNELS 6 Xposition Yposition Zposition Zrotation Yrotation Xrotation 
	JOINT LeftUpLeg
	{
		OFFSET 0.069520 -0.091406 -0.006815
		CHANNELS 3 Zrotation Yrotation Xrotation
		JOINT LeftLeg
		{
			OFFSET 0.034277 -0.375199 -0.004496
			CHANNELS 3 Zrotation Yrotation Xrotation
			JOINT LeftFoot
			{
				OFFSET -0.013596 -0.397961 -0.043693
				CHANNELS 3 Zrotation Yrotation Xrotation
				JOINT LeftToe
				{
					OFFSET 0.026358 -0.055791 0.119288
					CHANNELS 3 Zrotation Yrotation Xrotation
					End Site
					{
						OFFSET 0.000000 0.000000 0.000000
					}
				}
			}
		}
	}
	JOINT RightUpLeg
	{
		OFFSET -0.067670 -0.090522 -0.004320
		CHANNELS 3 Zrotation Yrotation Xrotation
		JOINT RightLeg
		{
			OFFSET -0.038290 -0.382569 -0.008850
			CHANNELS 3 Zrotation Yrotation Xrotation
			JOINT RightFoot
			{
				OFFSET 0.015774 -0.398415 -0.042312
				CHANNELS 3 Zrotation Yrotation Xrotation
				JOINT RightToe
				{
					OFFSET -0.025372 -0.048144 0.123348
					CHANNELS 3 Zrotation Yrotation Xrotation
					End Site
					{
						OFFSET 0.000000 0.000000 0.000000
					}
				}
			}
		}
	}
	JOINT Spine
	{
		OFFSET -0.002533 0.108963 -0.026696
		CHANNELS 3 Zrotation Yrotation Xrotation
		JOINT Spine1
		{
			OFFSET 0.005487 0.135180 0.001092
			CHANNELS 3 Zrotation Yrotation Xrotation
			JOINT Spine2
			{
				OFFSET 0.001457 0.052922 0.025425
				CHANNELS 3 Zrotation Yrotation Xrotation
				JOINT Neck
				{
					OFFSET -0.002778 0.213870 -0.042857
					CHANNELS 3 Zrotation Yrotation Xrotation
					JOINT Head
					{
						OFFSET 0.005152 0.064970 0.051349
						CHANNELS 3 Zrotation Yrotation Xrotation
						End Site
						{
							OFFSET 0.000000 0.000000 0.000000
						}
					}
				}
				JOINT LeftShoulder
				{
					OFFSET 0.078845 0.121749 -0.034090
					CHANNELS 3 Zrotation Yrotation Xrotation
					JOINT LeftArm
					{
						OFFSET 0.090977 0.030469 -0.008868
						CHANNELS 3 Zrotation Yrotation Xrotation
						JOINT LeftForeArm
						{
							OFFSET 0.259612 -0.012772 -0.027456
							CHANNELS 3 Zrotation Yrotation Xrotation
							JOINT LeftHand
							{
								OFFSET 0.249234 0.008986 -0.001171
								CHANNELS 3 Zrotation Yrotation Xrotation
								End Site
								{
									OFFSET 0.000000 0.000000 0.000000
								}
							}
						}
					}
				}
				JOINT RightShoulder
				{
					OFFSET -0.081759 0.118833 -0.038615
					CHANNELS 3 Zrotation Yrotation Xrotation
					JOINT RightArm
					{
						OFFSET -0.096012 0.032551 -0.009143
						CHANNELS 3 Zrotation Yrotation Xrotation
						JOINT RightForeArm
						{
							OFFSET -0.253742 -0.013329 -0.021401
							CHANNELS 3 Zrotation Yrotation Xrotation
							JOINT RightHand
							{
								OFFSET -0.255298 0.007772 -0.005559
								CHANNELS 3 Zrotation Yrotation Xrotation
								End Site
								{
									OFFSET 0.000000 0.000000 0.000000
								}
							}
						}
					}
				}
			}
		}
	}
}
MOTION
Frames: 7
Frame Time: 0.050000
0.055702 0.962220 -0.004431 -6.174382 20.395033 8.074723 9.796395 -1.018921 -12.766367 -2.655926 0.092545 2.833993 30.833932 22.524920 92.778897 0.000000 0.000000 0.000000 -6.505066 0.146418 -16.636320 2.578792 -0.437000 5.282317 -4.125021 -10.026645 19.475351 0.000000 0.000000 0.000000 3.023203 -0.931211 9.865783 -5.671230 2.268544 -22.260442 0.012417 13.381005 26.393544 17.164496 -3.758530 -28.663431 0.000000 0.000000 0.000000 -9.832717 -18.652911 3.145058 -52.469703 -1.629015 -7.453832 -45.598493 -40.249986 14.388900 0.000000 0.000000 0.000000 23.299836 10.712913 13.393782 68.462654 22.451714 5.039866 69.059783 29.862508 30.393486 0.000000 0.000000 0.000000 
0.053587 0.960964 -0.000273 -6.251731 21.564261 7.629402 10.197538 -1.038855 -12.578024 -2.768295 0.081785 3.187156 31.100488 22.508486 92.146351 0.000000 0.000000 0.000000 -5.885926 0.201509 -16.363769 2.161742 -0.378479 5.649564 -4.032543 -9.669857 20.318913 0.000000 0.000000 0.000000 2.578518 -0.825682 9.344305 -5.737782 2.348665 -21.392087 0.238581 12.937216 26.573806 17.138518 -3.241531 -30.501017 0.000000 0.000000 0.000000 -10.864937 -17.658317 2.394264 -50.341772 0.718672 -7.710671 -48.562991 -40.133239 15.172436 0.000000 0.000000 0.000000 22.852771 10.575616 13.231882 68.082903 22.034869 4.749189 70.468384 29.432439 30.992878 0.000000 0.000000 0.000000 
0.050802 0.959827 0.003124 -6.817884 21.553473 7.220361 10.988526 -1.027808 -12.481612 -2.708166 0.062809 3.704171 31.189530 22.548190 92.198489 0.000000 0.000000 0.000000 -5.808944 0.214100 -16.498149 3.273410 -0.642797 6.607347 -4.824589 -11.015226 20.237013 0.000000 0.000000 0.000000 2.617779 -0.821914 9.257150 -5.409008 2.277418 -21.327407 0.448529 14.103062 27.348012 17.290495 -2.855618 -31.695378 0.000000 0.000000 0.000000 -10.554801 -16.531724 1.731798 -49.786006 1.626812 -7.970716 -52.319806 -39.217662 15.554607 0.000000 0.000000 0.000000 21.280662 10.336931 12.790311 67.969052 23.058960 5.782662 71.951906 30.384270 33.060705 0.000000 0.000000 0.000000 
0.047599 0.960486 0.006014 -7.029500 21.302913 7.159092 11.544378 -1.002094 -11.818036 -2.848226 0.101438 2.813542 30.978432 22.511833 92.278591 0.000000 0.000000 0.000000 -5.948271 0.203378 -16.543216 3.386183 -0.650920 6.300315 -5.377732 -11.978768 21.034747 0.000000 0.000000 0.000000 2.745005 -0.846300 9.347701 -5.391292 2.247299 -21.682318 1.162614 15.473184 27.758594 16.774384 -1.978171 -33.454146 0.000000 0.000000 0.000000 -10.031678 -15.213871 1.064441 -50.180096 2.253400 -8.379266 -55.764013 -38.913615 16.025177 0.000000 0.000000 0.000000 19.614617 10.081756 12.218925 68.647926 23.849873 7.028341 72.081631 30.821970 33.778396 0.000000 0.000000 0.000000 
0.043637 0.960659 0.008625 -6.638219 21.747768 7.655438 11.121700 -1.028630 -12.042912 -2.224605 0.060051 2.446341 30.694870 22.428064 91.907393 0.000000 0.000000 0.000000 -5.576672 0.239249 -17.102408 2.556109 -0.468762 5.912584 -5.460406 -12.007570 21.253705 0.000000 0.000000 0.000000 3.577398 -0.920286 9.014584 -6.412265 2.412543 -22.457968 1.831152 16.009986 28.365389 16.432780 -1.504011 -34.162283 0.000000 0.000000 0.000000 -10.033320 -14.500965 0.601313 -50.348194 3.164825 -8.843817 -59.131319 -38.889543 16.855415 0.000000 0.000000 0.000000 17.888486 10.250837 11.787118 69.654291 24.456449 8.300433 73.054265 31.836226 35.496209 0.000000 0.000000 0.000000 
0.038428 0.960003 0.010920 -6.219388 22.642078 8.289146 11.155337 -1.069647 -11.961288 -2.257823 0.093284 1.002998 30.995907 22.396339 91.568848 0.000000 0.000000 0.000000 -5.432475 0.218218 -17.331588 1.877195 -0.307566 4.049272 -5.331267 -11.579208 23.871471 0.000000 0.000000 0.000000 4.749215 -1.091054 9.093548 -6.506601 2.410340 -22.890751 1.087679 17.734764 27.679847 18.149311 -1.983285 -34.676958 0.000000 0.000000 0.000000 -9.008122 -14.214028 0.407926 -50.854500 3.306125 -9.150619 -61.299236 -38.670721 16.663407 0.000000 0.000000 0.000000 18.269910 9.616865 12.046748 69.681328 26.475232 9.971432 74.402741 32.409769 37.115732 0.000000 0.000000 0.000000 
0.031446 0.959235 0.012299 -5.372666 23.730875 9.440236 11.079080 -1.149067 -12.575930 -2.644992 0.127140 -0.176982 31.052272 22.373730 91.075641 0.000000 0.000000 0.000000 -5.118130 0.222260 -17.520311 0.970152 -0.142497 1.936635 -5.718916 -11.893543 26.332026 0.000000 0.000000 0.000000 5.462022 -1.194810 8.976700 -7.659064 2.687607 -22.214156 1.113093 17.751334 26.161178 18.518223 -1.881115 -35.685336 0.000000 0.000000 0.000000 -8.170089 -14.457800 0.717689 -52.319154 2.992196 -9.555781 -60.370055 -40.302654 17.199233 0.000000 0.000000 0.000000 18.331295 10.266572 12.561079 70.408449 28.896229 12.133319 75.783008 33.745340 39.159394 0.000000 0.000000 0.000000 
